<svg xmlns="http://www.w3.org/2000/svg" width="1600" height="1120" viewBox="0 0 1600 1120"><rect width="1600" height="1120" fill="white"/><style>text{font-family:Arial,sans-serif;fill:#1F2937}.title{font-size:32px;font-weight:700}.sub{font-size:17px;fill:#4B5563}.panel{font-size:22px;font-weight:700}.axis{font-size:13px;fill:#4B5563}.cell{font-size:14px;font-weight:700;fill:white}.note{font-size:17px;fill:#374151}</style><text x="60" y="66" class="title">유동성·비용 가정을 바꾼 뒤에도 남은 조합</text><text x="60" y="105" class="sub">한 칸의 5/12는 총 12개 조합 중 네 기준을 모두 통과한 조합이 5개라는 뜻이다.</text><rect x="60" y="148" width="700" height="292" rx="8" fill="white" stroke="#E5E7EB" stroke-width="2"/><text x="78" y="180" class="panel">1개월 반전</text><text x="232" y="210" text-anchor="middle" class="axis">20%</text><text x="293" y="210" text-anchor="middle" class="axis">30%</text><text x="354" y="210" text-anchor="middle" class="axis">40%</text><text x="415" y="210" text-anchor="middle" class="axis">50%</text><text x="476" y="210" text-anchor="middle" class="axis">60%</text><text x="537" y="210" text-anchor="middle" class="axis">70%</text><text x="598" y="210" text-anchor="middle" class="axis">80%</text><text x="659" y="210" text-anchor="middle" class="axis">90%</text><text x="720" y="210" text-anchor="middle" class="axis">전체</text><text x="78" y="253" class="axis">충격 0.5배</text><rect x="205" y="228" width="54" height="37" rx="4" fill="#EEF1F4"/><rect x="266" y="228" width="54" height="37" rx="4" fill="#EEF1F4"/><rect x="327" y="228" width="54" height="37" rx="4" fill="#EEF1F4"/><rect x="388" y="228" width="54" height="37" rx="4" fill="#EEF1F4"/><rect x="449" y="228" width="54" height="37" rx="4" fill="#EEF1F4"/><rect x="510" y="228" width="54" height="37" rx="4" fill="#EEF1F4"/><rect x="571" y="228" width="54" height="37" rx="4" fill="#EEF1F4"/><rect x="632" y="228" width="54" height="37" rx="4" fill="#EEF1F4"/><rect x="693" y="228" width="54" height="37" rx="4" fill="#EEF1F4"/><text x="78" y="299" class="axis">충격 1.0배</text><rect x="205" y="274" width="54" height="37" rx="4" fill="#EEF1F4"/><rect x="266" y="274" width="54" height="37" rx="4" fill="#EEF1F4"/><rect x="327" y="274" width="54" height="37" rx="4" fill="#EEF1F4"/><rect x="388" y="274" width="54" height="37" rx="4" fill="#EEF1F4"/><rect x="449" y="274" width="54" height="37" rx="4" fill="#EEF1F4"/><rect x="510" y="274" width="54" height="37" rx="4" fill="#EEF1F4"/><rect x="571" y="274" width="54" height="37" rx="4" fill="#EEF1F4"/><rect x="632" y="274" width="54" height="37" rx="4" fill="#EEF1F4"/><rect x="693" y="274" width="54" height="37" rx="4" fill="#EEF1F4"/><text x="78" y="345" class="axis">충격 1.5배</text><rect x="205" y="320" width="54" height="37" rx="4" fill="#EEF1F4"/><rect x="266" y="320" width="54" height="37" rx="4" fill="#EEF1F4"/><rect x="327" y="320" width="54" height="37" rx="4" fill="#EEF1F4"/><rect x="388" y="320" width="54" height="37" rx="4" fill="#EEF1F4"/><rect x="449" y="320" width="54" height="37" rx="4" fill="#EEF1F4"/><rect x="510" y="320" width="54" height="37" rx="4" fill="#EEF1F4"/><rect x="571" y="320" width="54" height="37" rx="4" fill="#EEF1F4"/><rect x="632" y="320" width="54" height="37" rx="4" fill="#EEF1F4"/><rect x="693" y="320" width="54" height="37" rx="4" fill="#EEF1F4"/><text x="78" y="391" class="axis">충격 2.0배</text><rect x="205" y="366" width="54" height="37" rx="4" fill="#EEF1F4"/><rect x="266" y="366" width="54" height="37" rx="4" fill="#EEF1F4"/><rect x="327" y="366" width="54" height="37" rx="4" fill="#EEF1F4"/><rect x="388" y="366" width="54" height="37" rx="4" fill="#EEF1F4"/><rect x="449" y="366" width="54" height="37" rx="4" fill="#EEF1F4"/><rect x="510" y="366" width="54" height="37" rx="4" fill="#EEF1F4"/><rect x="571" y="366" width="54" height="37" rx="4" fill="#EEF1F4"/><rect x="632" y="366" width="54" height="37" rx="4" fill="#EEF1F4"/><rect x="693" y="366" width="54" height="37" rx="4" fill="#EEF1F4"/><rect x="830" y="148" width="700" height="292" rx="8" fill="white" stroke="#E5E7EB" stroke-width="2"/><text x="848" y="180" class="panel">6개월 모멘텀</text><text x="1002" y="210" text-anchor="middle" class="axis">20%</text><text x="1063" y="210" text-anchor="middle" class="axis">30%</text><text x="1124" y="210" text-anchor="middle" class="axis">40%</text><text x="1185" y="210" text-anchor="middle" class="axis">50%</text><text x="1246" y="210" text-anchor="middle" class="axis">60%</text><text x="1307" y="210" text-anchor="middle" class="axis">70%</text><text x="1368" y="210" text-anchor="middle" class="axis">80%</text><text x="1429" y="210" text-anchor="middle" class="axis">90%</text><text x="1490" y="210" text-anchor="middle" class="axis">전체</text><text x="848" y="253" class="axis">충격 0.5배</text><rect x="975" y="228" width="54" height="37" rx="4" fill="#EEF1F4"/><rect x="1036" y="228" width="54" height="37" rx="4" fill="#EEF1F4"/><rect x="1097" y="228" width="54" height="37" rx="4" fill="#EEF1F4"/><rect x="1158" y="228" width="54" height="37" rx="4" fill="#EEF1F4"/><rect x="1219" y="228" width="54" height="37" rx="4" fill="#EEF1F4"/><rect x="1280" y="228" width="54" height="37" rx="4" fill="#EEF1F4"/><rect x="1341" y="228" width="54" height="37" rx="4" fill="#EEF1F4"/><rect x="1402" y="228" width="54" height="37" rx="4" fill="#EEF1F4"/><rect x="1463" y="228" width="54" height="37" rx="4" fill="#EEF1F4"/><text x="848" y="299" class="axis">충격 1.0배</text><rect x="975" y="274" width="54" height="37" rx="4" fill="#EEF1F4"/><rect x="1036" y="274" width="54" height="37" rx="4" fill="#EEF1F4"/><rect x="1097" y="274" width="54" height="37" rx="4" fill="#EEF1F4"/><rect x="1158" y="274" width="54" height="37" rx="4" fill="#EEF1F4"/><rect x="1219" y="274" width="54" height="37" rx="4" fill="#EEF1F4"/><rect x="1280" y="274" width="54" height="37" rx="4" fill="#EEF1F4"/><rect x="1341" y="274" width="54" height="37" rx="4" fill="#EEF1F4"/><rect x="1402" y="274" width="54" height="37" rx="4" fill="#EEF1F4"/><rect x="1463" y="274" width="54" height="37" rx="4" fill="#EEF1F4"/><text x="848" y="345" class="axis">충격 1.5배</text><rect x="975" y="320" width="54" height="37" rx="4" fill="#EEF1F4"/><rect x="1036" y="320" width="54" height="37" rx="4" fill="#EEF1F4"/><rect x="1097" y="320" width="54" height="37" rx="4" fill="#EEF1F4"/><rect x="1158" y="320" width="54" height="37" rx="4" fill="#EEF1F4"/><rect x="1219" y="320" width="54" height="37" rx="4" fill="#EEF1F4"/><rect x="1280" y="320" width="54" height="37" rx="4" fill="#EEF1F4"/><rect x="1341" y="320" width="54" height="37" rx="4" fill="#EEF1F4"/><rect x="1402" y="320" width="54" height="37" rx="4" fill="#EEF1F4"/><rect x="1463" y="320" width="54" height="37" rx="4" fill="#EEF1F4"/><text x="848" y="391" class="axis">충격 2.0배</text><rect x="975" y="366" width="54" height="37" rx="4" fill="#EEF1F4"/><rect x="1036" y="366" width="54" height="37" rx="4" fill="#EEF1F4"/><rect x="1097" y="366" width="54" height="37" rx="4" fill="#EEF1F4"/><rect x="1158" y="366" width="54" height="37" rx="4" fill="#EEF1F4"/><rect x="1219" y="366" width="54" height="37" rx="4" fill="#EEF1F4"/><rect x="1280" y="366" width="54" height="37" rx="4" fill="#EEF1F4"/><rect x="1341" y="366" width="54" height="37" rx="4" fill="#EEF1F4"/><rect x="1402" y="366" width="54" height="37" rx="4" fill="#EEF1F4"/><rect x="1463" y="366" width="54" height="37" rx="4" fill="#EEF1F4"/><rect x="60" y="528" width="700" height="292" rx="8" fill="white" stroke="#E5E7EB" stroke-width="2"/><text x="78" y="560" class="panel">저변동성</text><text x="232" y="590" text-anchor="middle" class="axis">20%</text><text x="293" y="590" text-anchor="middle" class="axis">30%</text><text x="354" y="590" text-anchor="middle" class="axis">40%</text><text x="415" y="590" text-anchor="middle" class="axis">50%</text><text x="476" y="590" text-anchor="middle" class="axis">60%</text><text x="537" y="590" text-anchor="middle" class="axis">70%</text><text x="598" y="590" text-anchor="middle" class="axis">80%</text><text x="659" y="590" text-anchor="middle" class="axis">90%</text><text x="720" y="590" text-anchor="middle" class="axis">전체</text><text x="78" y="633" class="axis">충격 0.5배</text><rect x="205" y="608" width="54" height="37" rx="4" fill="#EEF1F4"/><rect x="266" y="608" width="54" height="37" rx="4" fill="#EEF1F4"/><rect x="327" y="608" width="54" height="37" rx="4" fill="#EEF1F4"/><rect x="388" y="608" width="54" height="37" rx="4" fill="#EEF1F4"/><rect x="449" y="608" width="54" height="37" rx="4" fill="#247BA0"/><text x="476" y="632" text-anchor="middle" class="cell">5/12</text><rect x="510" y="608" width="54" height="37" rx="4" fill="#247BA0"/><text x="537" y="632" text-anchor="middle" class="cell">5/12</text><rect x="571" y="608" width="54" height="37" rx="4" fill="#247BA0"/><text x="598" y="632" text-anchor="middle" class="cell">4/12</text><rect x="632" y="608" width="54" height="37" rx="4" fill="#247BA0"/><text x="659" y="632" text-anchor="middle" class="cell">3/12</text><rect x="693" y="608" width="54" height="37" rx="4" fill="#EEF1F4"/><text x="78" y="679" class="axis">충격 1.0배</text><rect x="205" y="654" width="54" height="37" rx="4" fill="#EEF1F4"/><rect x="266" y="654" width="54" height="37" rx="4" fill="#EEF1F4"/><rect x="327" y="654" width="54" height="37" rx="4" fill="#EEF1F4"/><rect x="388" y="654" width="54" height="37" rx="4" fill="#EEF1F4"/><rect x="449" y="654" width="54" height="37" rx="4" fill="#247BA0"/><text x="476" y="678" text-anchor="middle" class="cell">4/12</text><rect x="510" y="654" width="54" height="37" rx="4" fill="#247BA0"/><text x="537" y="678" text-anchor="middle" class="cell">5/12</text><rect x="571" y="654" width="54" height="37" rx="4" fill="#247BA0"/><text x="598" y="678" text-anchor="middle" class="cell">4/12</text><rect x="632" y="654" width="54" height="37" rx="4" fill="#247BA0"/><text x="659" y="678" text-anchor="middle" class="cell">3/12</text><rect x="693" y="654" width="54" height="37" rx="4" fill="#EEF1F4"/><text x="78" y="725" class="axis">충격 1.5배</text><rect x="205" y="700" width="54" height="37" rx="4" fill="#EEF1F4"/><rect x="266" y="700" width="54" height="37" rx="4" fill="#EEF1F4"/><rect x="327" y="700" width="54" height="37" rx="4" fill="#EEF1F4"/><rect x="388" y="700" width="54" height="37" rx="4" fill="#EEF1F4"/><rect x="449" y="700" width="54" height="37" rx="4" fill="#247BA0"/><text x="476" y="724" text-anchor="middle" class="cell">2/12</text><rect x="510" y="700" width="54" height="37" rx="4" fill="#247BA0"/><text x="537" y="724" text-anchor="middle" class="cell">4/12</text><rect x="571" y="700" width="54" height="37" rx="4" fill="#247BA0"/><text x="598" y="724" text-anchor="middle" class="cell">3/12</text><rect x="632" y="700" width="54" height="37" rx="4" fill="#247BA0"/><text x="659" y="724" text-anchor="middle" class="cell">2/12</text><rect x="693" y="700" width="54" height="37" rx="4" fill="#EEF1F4"/><text x="78" y="771" class="axis">충격 2.0배</text><rect x="205" y="746" width="54" height="37" rx="4" fill="#EEF1F4"/><rect x="266" y="746" width="54" height="37" rx="4" fill="#EEF1F4"/><rect x="327" y="746" width="54" height="37" rx="4" fill="#EEF1F4"/><rect x="388" y="746" width="54" height="37" rx="4" fill="#EEF1F4"/><rect x="449" y="746" width="54" height="37" rx="4" fill="#247BA0"/><text x="476" y="770" text-anchor="middle" class="cell">1/12</text><rect x="510" y="746" width="54" height="37" rx="4" fill="#247BA0"/><text x="537" y="770" text-anchor="middle" class="cell">2/12</text><rect x="571" y="746" width="54" height="37" rx="4" fill="#247BA0"/><text x="598" y="770" text-anchor="middle" class="cell">3/12</text><rect x="632" y="746" width="54" height="37" rx="4" fill="#247BA0"/><text x="659" y="770" text-anchor="middle" class="cell">2/12</text><rect x="693" y="746" width="54" height="37" rx="4" fill="#EEF1F4"/><rect x="830" y="528" width="700" height="292" rx="8" fill="white" stroke="#E5E7EB" stroke-width="2"/><text x="848" y="560" class="panel">소형주</text><text x="1002" y="590" text-anchor="middle" class="axis">20%</text><text x="1063" y="590" text-anchor="middle" class="axis">30%</text><text x="1124" y="590" text-anchor="middle" class="axis">40%</text><text x="1185" y="590" text-anchor="middle" class="axis">50%</text><text x="1246" y="590" text-anchor="middle" class="axis">60%</text><text x="1307" y="590" text-anchor="middle" class="axis">70%</text><text x="1368" y="590" text-anchor="middle" class="axis">80%</text><text x="1429" y="590" text-anchor="middle" class="axis">90%</text><text x="1490" y="590" text-anchor="middle" class="axis">전체</text><text x="848" y="633" class="axis">충격 0.5배</text><rect x="975" y="608" width="54" height="37" rx="4" fill="#EEF1F4"/><rect x="1036" y="608" width="54" height="37" rx="4" fill="#EEF1F4"/><rect x="1097" y="608" width="54" height="37" rx="4" fill="#EEF1F4"/><rect x="1158" y="608" width="54" height="37" rx="4" fill="#EEF1F4"/><rect x="1219" y="608" width="54" height="37" rx="4" fill="#EEF1F4"/><rect x="1280" y="608" width="54" height="37" rx="4" fill="#EEF1F4"/><rect x="1341" y="608" width="54" height="37" rx="4" fill="#E76F51"/><text x="1368" y="632" text-anchor="middle" class="cell">2/12</text><rect x="1402" y="608" width="54" height="37" rx="4" fill="#E76F51"/><text x="1429" y="632" text-anchor="middle" class="cell">1/12</text><rect x="1463" y="608" width="54" height="37" rx="4" fill="#EEF1F4"/><text x="848" y="679" class="axis">충격 1.0배</text><rect x="975" y="654" width="54" height="37" rx="4" fill="#EEF1F4"/><rect x="1036" y="654" width="54" height="37" rx="4" fill="#EEF1F4"/><rect x="1097" y="654" width="54" height="37" rx="4" fill="#EEF1F4"/><rect x="1158" y="654" width="54" height="37" rx="4" fill="#EEF1F4"/><rect x="1219" y="654" width="54" height="37" rx="4" fill="#EEF1F4"/><rect x="1280" y="654" width="54" height="37" rx="4" fill="#EEF1F4"/><rect x="1341" y="654" width="54" height="37" rx="4" fill="#E76F51"/><text x="1368" y="678" text-anchor="middle" class="cell">2/12</text><rect x="1402" y="654" width="54" height="37" rx="4" fill="#E76F51"/><text x="1429" y="678" text-anchor="middle" class="cell">1/12</text><rect x="1463" y="654" width="54" height="37" rx="4" fill="#EEF1F4"/><text x="848" y="725" class="axis">충격 1.5배</text><rect x="975" y="700" width="54" height="37" rx="4" fill="#EEF1F4"/><rect x="1036" y="700" width="54" height="37" rx="4" fill="#EEF1F4"/><rect x="1097" y="700" width="54" height="37" rx="4" fill="#EEF1F4"/><rect x="1158" y="700" width="54" height="37" rx="4" fill="#EEF1F4"/><rect x="1219" y="700" width="54" height="37" rx="4" fill="#EEF1F4"/><rect x="1280" y="700" width="54" height="37" rx="4" fill="#EEF1F4"/><rect x="1341" y="700" width="54" height="37" rx="4" fill="#E76F51"/><text x="1368" y="724" text-anchor="middle" class="cell">2/12</text><rect x="1402" y="700" width="54" height="37" rx="4" fill="#E76F51"/><text x="1429" y="724" text-anchor="middle" class="cell">1/12</text><rect x="1463" y="700" width="54" height="37" rx="4" fill="#EEF1F4"/><text x="848" y="771" class="axis">충격 2.0배</text><rect x="975" y="746" width="54" height="37" rx="4" fill="#EEF1F4"/><rect x="1036" y="746" width="54" height="37" rx="4" fill="#EEF1F4"/><rect x="1097" y="746" width="54" height="37" rx="4" fill="#EEF1F4"/><rect x="1158" y="746" width="54" height="37" rx="4" fill="#EEF1F4"/><rect x="1219" y="746" width="54" height="37" rx="4" fill="#EEF1F4"/><rect x="1280" y="746" width="54" height="37" rx="4" fill="#EEF1F4"/><rect x="1341" y="746" width="54" height="37" rx="4" fill="#E76F51"/><text x="1368" y="770" text-anchor="middle" class="cell">2/12</text><rect x="1402" y="746" width="54" height="37" rx="4" fill="#E76F51"/><text x="1429" y="770" text-anchor="middle" class="cell">1/12</text><rect x="1463" y="746" width="54" height="37" rx="4" fill="#EEF1F4"/><rect x="60" y="925" width="1480" height="125" rx="8" fill="#F8FAFC" stroke="#D1D5DB"/><text x="85" y="974" class="note">읽는 예: 저변동성 · 유동성 상위 70% · 충격 1.0배의 5/12는, 그 조건 아래 12개 조합 중 5개가 통과했다는 뜻이다.</text><text x="85" y="1012" class="note">핵심: 반전·모멘텀은 전부 0/12, 저변동성은 60~90%, 소형주는 80~90%에서만 안정적인 구간이 남았다.</text><text x="60" y="1082" class="sub">빈 칸은 0/12다. 숫자는 종목 수·수익률·월 수가 아니라, 조건을 통과한 전략 조합 수다.</text></svg>