<svg xmlns="http://www.w3.org/2000/svg" width="1200" height="720" viewBox="0 0 1200 720" role="img" aria-labelledby="title desc"><title id="title">Robust strategy count by liquidity universe and cost assumption</title><desc id="desc">Four panels show how many strategy configurations remain robust at each liquidity universe and cost multiplier. Only low volatility and small cap retain robust configurations.</desc><rect width="1200" height="720" fill="#FFFFFF"/><style>text{font-family:Arial,sans-serif;fill:#1F2937}.muted{fill:#6B7280}.small{font-size:14px}.axis{font-size:13px}.title{font-size:25px;font-weight:700}.panel{font-size:18px;font-weight:700}.note{font-size:15px}</style><text x="60" y="52" class="title">Robust strategies are regions, not isolated peaks</text><text x="60" y="78" class="muted small">Count of configurations meeting all four rules: positive net CAGR, t &gt; 1.96, MDD &gt; -60%, mean fill ≥ 80%</text><text x="60" y="112" class="panel">1M reversal</text><text x="148" y="127" text-anchor="middle" class="axis muted">20</text><text x="196" y="127" text-anchor="middle" class="axis muted">30</text><text x="244" y="127" text-anchor="middle" class="axis muted">40</text><text x="292" y="127" text-anchor="middle" class="axis muted">50</text><text x="340" y="127" text-anchor="middle" class="axis muted">60</text><text x="388" y="127" text-anchor="middle" class="axis muted">70</text><text x="436" y="127" text-anchor="middle" class="axis muted">80</text><text x="484" y="127" text-anchor="middle" class="axis muted">90</text><text x="532" y="127" text-anchor="middle" class="axis muted">100</text><text x="324" y="102" text-anchor="middle" class="axis muted">liquidity universe (%)</text><text x="120" y="153" text-anchor="end" class="axis muted">0.5×</text><rect x="132" y="130" width="42" height="29" rx="3" fill="#EEF1F4" opacity="1.00"/><rect x="180" y="130" width="42" height="29" rx="3" fill="#EEF1F4" opacity="1.00"/><rect x="228" y="130" width="42" height="29" rx="3" fill="#EEF1F4" opacity="1.00"/><rect x="276" y="130" width="42" height="29" rx="3" fill="#EEF1F4" opacity="1.00"/><rect x="324" y="130" width="42" height="29" rx="3" fill="#EEF1F4" opacity="1.00"/><rect x="372" y="130" width="42" height="29" rx="3" fill="#EEF1F4" opacity="1.00"/><rect x="420" y="130" width="42" height="29" rx="3" fill="#EEF1F4" opacity="1.00"/><rect x="468" y="130" width="42" height="29" rx="3" fill="#EEF1F4" opacity="1.00"/><rect x="516" y="130" width="42" height="29" rx="3" fill="#EEF1F4" opacity="1.00"/><text x="120" y="188" text-anchor="end" class="axis muted">1.0×</text><rect x="132" y="165" width="42" height="29" rx="3" fill="#EEF1F4" opacity="1.00"/><rect x="180" y="165" width="42" height="29" rx="3" fill="#EEF1F4" opacity="1.00"/><rect x="228" y="165" width="42" height="29" rx="3" fill="#EEF1F4" opacity="1.00"/><rect x="276" y="165" width="42" height="29" rx="3" fill="#EEF1F4" opacity="1.00"/><rect x="324" y="165" width="42" height="29" rx="3" fill="#EEF1F4" opacity="1.00"/><rect x="372" y="165" width="42" height="29" rx="3" fill="#EEF1F4" opacity="1.00"/><rect x="420" y="165" width="42" height="29" rx="3" fill="#EEF1F4" opacity="1.00"/><rect x="468" y="165" width="42" height="29" rx="3" fill="#EEF1F4" opacity="1.00"/><rect x="516" y="165" width="42" height="29" rx="3" fill="#EEF1F4" opacity="1.00"/><text x="120" y="223" text-anchor="end" class="axis muted">1.5×</text><rect x="132" y="200" width="42" height="29" rx="3" fill="#EEF1F4" opacity="1.00"/><rect x="180" y="200" width="42" height="29" rx="3" fill="#EEF1F4" opacity="1.00"/><rect x="228" y="200" width="42" height="29" rx="3" fill="#EEF1F4" opacity="1.00"/><rect x="276" y="200" width="42" height="29" rx="3" fill="#EEF1F4" opacity="1.00"/><rect x="324" y="200" width="42" height="29" rx="3" fill="#EEF1F4" opacity="1.00"/><rect x="372" y="200" width="42" height="29" rx="3" fill="#EEF1F4" opacity="1.00"/><rect x="420" y="200" width="42" height="29" rx="3" fill="#EEF1F4" opacity="1.00"/><rect x="468" y="200" width="42" height="29" rx="3" fill="#EEF1F4" opacity="1.00"/><rect x="516" y="200" width="42" height="29" rx="3" fill="#EEF1F4" opacity="1.00"/><text x="120" y="258" text-anchor="end" class="axis muted">2.0×</text><rect x="132" y="235" width="42" height="29" rx="3" fill="#EEF1F4" opacity="1.00"/><rect x="180" y="235" width="42" height="29" rx="3" fill="#EEF1F4" opacity="1.00"/><rect x="228" y="235" width="42" height="29" rx="3" fill="#EEF1F4" opacity="1.00"/><rect x="276" y="235" width="42" height="29" rx="3" fill="#EEF1F4" opacity="1.00"/><rect x="324" y="235" width="42" height="29" rx="3" fill="#EEF1F4" opacity="1.00"/><rect x="372" y="235" width="42" height="29" rx="3" fill="#EEF1F4" opacity="1.00"/><rect x="420" y="235" width="42" height="29" rx="3" fill="#EEF1F4" opacity="1.00"/><rect x="468" y="235" width="42" height="29" rx="3" fill="#EEF1F4" opacity="1.00"/><rect x="516" y="235" width="42" height="29" rx="3" fill="#EEF1F4" opacity="1.00"/><text x="68" y="208" transform="rotate(-90 68 208)" class="axis muted">cost multiplier</text><text x="630" y="112" class="panel">6M momentum</text><text x="718" y="127" text-anchor="middle" class="axis muted">20</text><text x="766" y="127" text-anchor="middle" class="axis muted">30</text><text x="814" y="127" text-anchor="middle" class="axis muted">40</text><text x="862" y="127" text-anchor="middle" class="axis muted">50</text><text x="910" y="127" text-anchor="middle" class="axis muted">60</text><text x="958" y="127" text-anchor="middle" class="axis muted">70</text><text x="1006" y="127" text-anchor="middle" class="axis muted">80</text><text x="1054" y="127" text-anchor="middle" class="axis muted">90</text><text x="1102" y="127" text-anchor="middle" class="axis muted">100</text><text x="894" y="102" text-anchor="middle" class="axis muted">liquidity universe (%)</text><text x="690" y="153" text-anchor="end" class="axis muted">0.5×</text><rect x="702" y="130" width="42" height="29" rx="3" fill="#EEF1F4" opacity="1.00"/><rect x="750" y="130" width="42" height="29" rx="3" fill="#EEF1F4" opacity="1.00"/><rect x="798" y="130" width="42" height="29" rx="3" fill="#EEF1F4" opacity="1.00"/><rect x="846" y="130" width="42" height="29" rx="3" fill="#EEF1F4" opacity="1.00"/><rect x="894" y="130" width="42" height="29" rx="3" fill="#EEF1F4" opacity="1.00"/><rect x="942" y="130" width="42" height="29" rx="3" fill="#EEF1F4" opacity="1.00"/><rect x="990" y="130" width="42" height="29" rx="3" fill="#EEF1F4" opacity="1.00"/><rect x="1038" y="130" width="42" height="29" rx="3" fill="#EEF1F4" opacity="1.00"/><rect x="1086" y="130" width="42" height="29" rx="3" fill="#EEF1F4" opacity="1.00"/><text x="690" y="188" text-anchor="end" class="axis muted">1.0×</text><rect x="702" y="165" width="42" height="29" rx="3" fill="#EEF1F4" opacity="1.00"/><rect x="750" y="165" width="42" height="29" rx="3" fill="#EEF1F4" opacity="1.00"/><rect x="798" y="165" width="42" height="29" rx="3" fill="#EEF1F4" opacity="1.00"/><rect x="846" y="165" width="42" height="29" rx="3" fill="#EEF1F4" opacity="1.00"/><rect x="894" y="165" width="42" height="29" rx="3" fill="#EEF1F4" opacity="1.00"/><rect x="942" y="165" width="42" height="29" rx="3" fill="#EEF1F4" opacity="1.00"/><rect x="990" y="165" width="42" height="29" rx="3" fill="#EEF1F4" opacity="1.00"/><rect x="1038" y="165" width="42" height="29" rx="3" fill="#EEF1F4" opacity="1.00"/><rect x="1086" y="165" width="42" height="29" rx="3" fill="#EEF1F4" opacity="1.00"/><text x="690" y="223" text-anchor="end" class="axis muted">1.5×</text><rect x="702" y="200" width="42" height="29" rx="3" fill="#EEF1F4" opacity="1.00"/><rect x="750" y="200" width="42" height="29" rx="3" fill="#EEF1F4" opacity="1.00"/><rect x="798" y="200" width="42" height="29" rx="3" fill="#EEF1F4" opacity="1.00"/><rect x="846" y="200" width="42" height="29" rx="3" fill="#EEF1F4" opacity="1.00"/><rect x="894" y="200" width="42" height="29" rx="3" fill="#EEF1F4" opacity="1.00"/><rect x="942" y="200" width="42" height="29" rx="3" fill="#EEF1F4" opacity="1.00"/><rect x="990" y="200" width="42" height="29" rx="3" fill="#EEF1F4" opacity="1.00"/><rect x="1038" y="200" width="42" height="29" rx="3" fill="#EEF1F4" opacity="1.00"/><rect x="1086" y="200" width="42" height="29" rx="3" fill="#EEF1F4" opacity="1.00"/><text x="690" y="258" text-anchor="end" class="axis muted">2.0×</text><rect x="702" y="235" width="42" height="29" rx="3" fill="#EEF1F4" opacity="1.00"/><rect x="750" y="235" width="42" height="29" rx="3" fill="#EEF1F4" opacity="1.00"/><rect x="798" y="235" width="42" height="29" rx="3" fill="#EEF1F4" opacity="1.00"/><rect x="846" y="235" width="42" height="29" rx="3" fill="#EEF1F4" opacity="1.00"/><rect x="894" y="235" width="42" height="29" rx="3" fill="#EEF1F4" opacity="1.00"/><rect x="942" y="235" width="42" height="29" rx="3" fill="#EEF1F4" opacity="1.00"/><rect x="990" y="235" width="42" height="29" rx="3" fill="#EEF1F4" opacity="1.00"/><rect x="1038" y="235" width="42" height="29" rx="3" fill="#EEF1F4" opacity="1.00"/><rect x="1086" y="235" width="42" height="29" rx="3" fill="#EEF1F4" opacity="1.00"/><text x="638" y="208" transform="rotate(-90 638 208)" class="axis muted">cost multiplier</text><text x="60" y="392" class="panel">Low volatility</text><text x="148" y="407" text-anchor="middle" class="axis muted">20</text><text x="196" y="407" text-anchor="middle" class="axis muted">30</text><text x="244" y="407" text-anchor="middle" class="axis muted">40</text><text x="292" y="407" text-anchor="middle" class="axis muted">50</text><text x="340" y="407" text-anchor="middle" class="axis muted">60</text><text x="388" y="407" text-anchor="middle" class="axis muted">70</text><text x="436" y="407" text-anchor="middle" class="axis muted">80</text><text x="484" y="407" text-anchor="middle" class="axis muted">90</text><text x="532" y="407" text-anchor="middle" class="axis muted">100</text><text x="324" y="382" text-anchor="middle" class="axis muted">liquidity universe (%)</text><text x="120" y="433" text-anchor="end" class="axis muted">0.5×</text><rect x="132" y="410" width="42" height="29" rx="3" fill="#EEF1F4" opacity="1.00"/><rect x="180" y="410" width="42" height="29" rx="3" fill="#EEF1F4" opacity="1.00"/><rect x="228" y="410" width="42" height="29" rx="3" fill="#EEF1F4" opacity="1.00"/><rect x="276" y="410" width="42" height="29" rx="3" fill="#EEF1F4" opacity="1.00"/><rect x="324" y="410" width="42" height="29" rx="3" fill="#247BA0" opacity="0.75"/><text x="345" y="430" text-anchor="middle" class="small" fill="#FFFFFF" style="fill:#FFFFFF">5</text><rect x="372" y="410" width="42" height="29" rx="3" fill="#247BA0" opacity="0.75"/><text x="393" y="430" text-anchor="middle" class="small" fill="#FFFFFF" style="fill:#FFFFFF">5</text><rect x="420" y="410" width="42" height="29" rx="3" fill="#247BA0" opacity="0.65"/><text x="441" y="430" text-anchor="middle" class="small" fill="#FFFFFF" style="fill:#FFFFFF">4</text><rect x="468" y="410" width="42" height="29" rx="3" fill="#247BA0" opacity="0.55"/><text x="489" y="430" text-anchor="middle" class="small" fill="#FFFFFF" style="fill:#FFFFFF">3</text><rect x="516" y="410" width="42" height="29" rx="3" fill="#EEF1F4" opacity="1.00"/><text x="120" y="468" text-anchor="end" class="axis muted">1.0×</text><rect x="132" y="445" width="42" height="29" rx="3" fill="#EEF1F4" opacity="1.00"/><rect x="180" y="445" width="42" height="29" rx="3" fill="#EEF1F4" opacity="1.00"/><rect x="228" y="445" width="42" height="29" rx="3" fill="#EEF1F4" opacity="1.00"/><rect x="276" y="445" width="42" height="29" rx="3" fill="#EEF1F4" opacity="1.00"/><rect x="324" y="445" width="42" height="29" rx="3" fill="#247BA0" opacity="0.75"/><text x="345" y="465" text-anchor="middle" class="small" fill="#FFFFFF" style="fill:#FFFFFF">5</text><rect x="372" y="445" width="42" height="29" rx="3" fill="#247BA0" opacity="0.75"/><text x="393" y="465" text-anchor="middle" class="small" fill="#FFFFFF" style="fill:#FFFFFF">5</text><rect x="420" y="445" width="42" height="29" rx="3" fill="#247BA0" opacity="0.65"/><text x="441" y="465" text-anchor="middle" class="small" fill="#FFFFFF" style="fill:#FFFFFF">4</text><rect x="468" y="445" width="42" height="29" rx="3" fill="#247BA0" opacity="0.55"/><text x="489" y="465" text-anchor="middle" class="small" fill="#FFFFFF" style="fill:#FFFFFF">3</text><rect x="516" y="445" width="42" height="29" rx="3" fill="#EEF1F4" opacity="1.00"/><text x="120" y="503" text-anchor="end" class="axis muted">1.5×</text><rect x="132" y="480" width="42" height="29" rx="3" fill="#EEF1F4" opacity="1.00"/><rect x="180" y="480" width="42" height="29" rx="3" fill="#EEF1F4" opacity="1.00"/><rect x="228" y="480" width="42" height="29" rx="3" fill="#EEF1F4" opacity="1.00"/><rect x="276" y="480" width="42" height="29" rx="3" fill="#EEF1F4" opacity="1.00"/><rect x="324" y="480" width="42" height="29" rx="3" fill="#247BA0" opacity="0.45"/><text x="345" y="500" text-anchor="middle" class="small" fill="#FFFFFF" style="fill:#FFFFFF">2</text><rect x="372" y="480" width="42" height="29" rx="3" fill="#247BA0" opacity="0.65"/><text x="393" y="500" text-anchor="middle" class="small" fill="#FFFFFF" style="fill:#FFFFFF">4</text><rect x="420" y="480" width="42" height="29" rx="3" fill="#247BA0" opacity="0.55"/><text x="441" y="500" text-anchor="middle" class="small" fill="#FFFFFF" style="fill:#FFFFFF">3</text><rect x="468" y="480" width="42" height="29" rx="3" fill="#247BA0" opacity="0.55"/><text x="489" y="500" text-anchor="middle" class="small" fill="#FFFFFF" style="fill:#FFFFFF">3</text><rect x="516" y="480" width="42" height="29" rx="3" fill="#EEF1F4" opacity="1.00"/><text x="120" y="538" text-anchor="end" class="axis muted">2.0×</text><rect x="132" y="515" width="42" height="29" rx="3" fill="#EEF1F4" opacity="1.00"/><rect x="180" y="515" width="42" height="29" rx="3" fill="#EEF1F4" opacity="1.00"/><rect x="228" y="515" width="42" height="29" rx="3" fill="#EEF1F4" opacity="1.00"/><rect x="276" y="515" width="42" height="29" rx="3" fill="#EEF1F4" opacity="1.00"/><rect x="324" y="515" width="42" height="29" rx="3" fill="#247BA0" opacity="0.45"/><text x="345" y="535" text-anchor="middle" class="small" fill="#FFFFFF" style="fill:#FFFFFF">2</text><rect x="372" y="515" width="42" height="29" rx="3" fill="#247BA0" opacity="0.55"/><text x="393" y="535" text-anchor="middle" class="small" fill="#FFFFFF" style="fill:#FFFFFF">3</text><rect x="420" y="515" width="42" height="29" rx="3" fill="#247BA0" opacity="0.55"/><text x="441" y="535" text-anchor="middle" class="small" fill="#FFFFFF" style="fill:#FFFFFF">3</text><rect x="468" y="515" width="42" height="29" rx="3" fill="#247BA0" opacity="0.45"/><text x="489" y="535" text-anchor="middle" class="small" fill="#FFFFFF" style="fill:#FFFFFF">2</text><rect x="516" y="515" width="42" height="29" rx="3" fill="#EEF1F4" opacity="1.00"/><text x="68" y="488" transform="rotate(-90 68 488)" class="axis muted">cost multiplier</text><text x="630" y="392" class="panel">Small cap</text><text x="718" y="407" text-anchor="middle" class="axis muted">20</text><text x="766" y="407" text-anchor="middle" class="axis muted">30</text><text x="814" y="407" text-anchor="middle" class="axis muted">40</text><text x="862" y="407" text-anchor="middle" class="axis muted">50</text><text x="910" y="407" text-anchor="middle" class="axis muted">60</text><text x="958" y="407" text-anchor="middle" class="axis muted">70</text><text x="1006" y="407" text-anchor="middle" class="axis muted">80</text><text x="1054" y="407" text-anchor="middle" class="axis muted">90</text><text x="1102" y="407" text-anchor="middle" class="axis muted">100</text><text x="894" y="382" text-anchor="middle" class="axis muted">liquidity universe (%)</text><text x="690" y="433" text-anchor="end" class="axis muted">0.5×</text><rect x="702" y="410" width="42" height="29" rx="3" fill="#EEF1F4" opacity="1.00"/><rect x="750" y="410" width="42" height="29" rx="3" fill="#EEF1F4" opacity="1.00"/><rect x="798" y="410" width="42" height="29" rx="3" fill="#EEF1F4" opacity="1.00"/><rect x="846" y="410" width="42" height="29" rx="3" fill="#EEF1F4" opacity="1.00"/><rect x="894" y="410" width="42" height="29" rx="3" fill="#EEF1F4" opacity="1.00"/><rect x="942" y="410" width="42" height="29" rx="3" fill="#EEF1F4" opacity="1.00"/><rect x="990" y="410" width="42" height="29" rx="3" fill="#E76F51" opacity="0.45"/><text x="1011" y="430" text-anchor="middle" class="small" fill="#FFFFFF" style="fill:#FFFFFF">2</text><rect x="1038" y="410" width="42" height="29" rx="3" fill="#E76F51" opacity="0.35"/><text x="1059" y="430" text-anchor="middle" class="small" fill="#FFFFFF" style="fill:#FFFFFF">1</text><rect x="1086" y="410" width="42" height="29" rx="3" fill="#EEF1F4" opacity="1.00"/><text x="690" y="468" text-anchor="end" class="axis muted">1.0×</text><rect x="702" y="445" width="42" height="29" rx="3" fill="#EEF1F4" opacity="1.00"/><rect x="750" y="445" width="42" height="29" rx="3" fill="#EEF1F4" opacity="1.00"/><rect x="798" y="445" width="42" height="29" rx="3" fill="#EEF1F4" opacity="1.00"/><rect x="846" y="445" width="42" height="29" rx="3" fill="#EEF1F4" opacity="1.00"/><rect x="894" y="445" width="42" height="29" rx="3" fill="#EEF1F4" opacity="1.00"/><rect x="942" y="445" width="42" height="29" rx="3" fill="#EEF1F4" opacity="1.00"/><rect x="990" y="445" width="42" height="29" rx="3" fill="#E76F51" opacity="0.45"/><text x="1011" y="465" text-anchor="middle" class="small" fill="#FFFFFF" style="fill:#FFFFFF">2</text><rect x="1038" y="445" width="42" height="29" rx="3" fill="#E76F51" opacity="0.35"/><text x="1059" y="465" text-anchor="middle" class="small" fill="#FFFFFF" style="fill:#FFFFFF">1</text><rect x="1086" y="445" width="42" height="29" rx="3" fill="#EEF1F4" opacity="1.00"/><text x="690" y="503" text-anchor="end" class="axis muted">1.5×</text><rect x="702" y="480" width="42" height="29" rx="3" fill="#EEF1F4" opacity="1.00"/><rect x="750" y="480" width="42" height="29" rx="3" fill="#EEF1F4" opacity="1.00"/><rect x="798" y="480" width="42" height="29" rx="3" fill="#EEF1F4" opacity="1.00"/><rect x="846" y="480" width="42" height="29" rx="3" fill="#EEF1F4" opacity="1.00"/><rect x="894" y="480" width="42" height="29" rx="3" fill="#EEF1F4" opacity="1.00"/><rect x="942" y="480" width="42" height="29" rx="3" fill="#EEF1F4" opacity="1.00"/><rect x="990" y="480" width="42" height="29" rx="3" fill="#E76F51" opacity="0.45"/><text x="1011" y="500" text-anchor="middle" class="small" fill="#FFFFFF" style="fill:#FFFFFF">2</text><rect x="1038" y="480" width="42" height="29" rx="3" fill="#E76F51" opacity="0.35"/><text x="1059" y="500" text-anchor="middle" class="small" fill="#FFFFFF" style="fill:#FFFFFF">1</text><rect x="1086" y="480" width="42" height="29" rx="3" fill="#EEF1F4" opacity="1.00"/><text x="690" y="538" text-anchor="end" class="axis muted">2.0×</text><rect x="702" y="515" width="42" height="29" rx="3" fill="#EEF1F4" opacity="1.00"/><rect x="750" y="515" width="42" height="29" rx="3" fill="#EEF1F4" opacity="1.00"/><rect x="798" y="515" width="42" height="29" rx="3" fill="#EEF1F4" opacity="1.00"/><rect x="846" y="515" width="42" height="29" rx="3" fill="#EEF1F4" opacity="1.00"/><rect x="894" y="515" width="42" height="29" rx="3" fill="#EEF1F4" opacity="1.00"/><rect x="942" y="515" width="42" height="29" rx="3" fill="#EEF1F4" opacity="1.00"/><rect x="990" y="515" width="42" height="29" rx="3" fill="#E76F51" opacity="0.45"/><text x="1011" y="535" text-anchor="middle" class="small" fill="#FFFFFF" style="fill:#FFFFFF">2</text><rect x="1038" y="515" width="42" height="29" rx="3" fill="#E76F51" opacity="0.35"/><text x="1059" y="535" text-anchor="middle" class="small" fill="#FFFFFF" style="fill:#FFFFFF">1</text><rect x="1086" y="515" width="42" height="29" rx="3" fill="#EEF1F4" opacity="1.00"/><text x="638" y="488" transform="rotate(-90 638 488)" class="axis muted">cost multiplier</text><line x1="60" y1="662" x2="1140" y2="662" stroke="#D1D5DB"/><text x="60" y="692" class="note">Reading rule: one number is the count of robust configurations after changing holdings and AUM. Blank cells have no surviving configuration.</text></svg>